<svg xmlns="http://www.w3.org/2000/svg" width="20" height="18" fill="none" viewBox="0 0 20 18">
  <path fill="#0D1316" d="m18.337 10.44 1.642-7.207a.832.832 0 0 0-.813-1.015H5.528L5.21.665A.833.833 0 0 0 4.393 0H.833A.832.832 0 0 0 0 .832v.554c0 .46.373.832.833.832H3.26l2.439 11.9a1.938 1.938 0 0 0 .968 3.623A1.942 1.942 0 0 0 8.61 15.8c0-.544-.224-1.035-.584-1.387h7.28c-.36.352-.585.843-.585 1.386 0 1.072.87 1.94 1.945 1.94a1.94 1.94 0 0 0 .848-3.687l.191-.84a.832.832 0 0 0-.812-1.016h-9.32l-.228-1.11h10.179a.834.834 0 0 0 .813-.646Z"/>
</svg>
