<svg width="41" height="34" viewBox="0 0 41 34" fill="none" xmlns="http://www.w3.org/2000/svg">
<path d="M20.4998 34C20.1162 34 19.7915 33.8672 19.5259 33.6016L5.71338 20.276C5.56581 20.158 5.3629 19.9661 5.10466 19.7005C4.84641 19.4349 4.4369 18.9516 3.87614 18.2507C3.31538 17.5497 2.81364 16.8303 2.37093 16.0924C1.92822 15.3546 1.53347 14.4618 1.18669 13.4141C0.839898 12.3663 0.666504 11.3481 0.666504 10.3594C0.666504 7.11285 1.60357 4.57465 3.4777 2.74479C5.35183 0.914931 7.94168 0 11.2472 0C12.1622 0 13.0955 0.158637 14.0474 0.475911C14.9992 0.793186 15.8846 1.22114 16.7036 1.75977C17.5226 2.29839 18.2273 2.80382 18.8175 3.27604C19.4078 3.74826 19.9686 4.25 20.4998 4.78125C21.0311 4.25 21.5919 3.74826 22.1821 3.27604C22.7724 2.80382 23.4771 2.29839 24.2961 1.75977C25.1151 1.22114 26.0005 0.793186 26.9523 0.475911C27.9041 0.158637 28.8375 0 29.7524 0C33.058 0 35.6478 0.914931 37.522 2.74479C39.3961 4.57465 40.3332 7.11285 40.3332 10.3594C40.3332 13.6207 38.6435 16.941 35.2642 20.3203L21.4738 33.6016C21.2082 33.8672 20.8835 34 20.4998 34Z" fill="#F44C76"/>
</svg>
