<svg width="107" height="44" viewBox="0 0 107 44" fill="none" xmlns="http://www.w3.org/2000/svg">
<path d="M25.1853 20.1707L25.6337 9.33741L29.6059 9.50181C30.1927 9.5261 30.4982 9.24484 30.5225 8.65804L30.5888 7.05562C30.614 6.44624 30.3328 6.1407 29.7234 6.11548L18.529 5.65217C17.9197 5.62695 17.6141 5.9082 17.5889 6.51758L17.5226 8.12C17.4983 8.7068 17.7795 9.01235 18.3663 9.03663L22.3611 9.20197L21.9127 20.0352C21.8875 20.6446 22.1688 20.9502 22.7782 20.9754L24.2452 21.0361C24.8545 21.0613 25.1601 20.7801 25.1853 20.1707Z" fill="#341C31"/>
<path d="M34.5181 20.557L34.6993 16.1785C34.7852 14.1021 35.794 13.217 37.2836 13.2786C38.3669 13.3234 38.9887 14.1405 38.9205 15.788L38.6973 21.1821C38.6721 21.7915 38.9533 22.097 39.5627 22.1222L40.9169 22.1783C41.5262 22.2035 41.8318 21.9222 41.857 21.3129L42.1223 14.9032C42.2577 11.6306 40.6916 10.1415 38.5024 10.0509C37.2385 9.99857 35.7904 10.5717 34.8777 11.8678L35.0972 6.56397C35.1224 5.9546 34.8412 5.64905 34.2318 5.62383L32.8776 5.56779C32.2683 5.54257 31.9627 5.82382 31.9375 6.4332L31.3584 20.4262C31.3331 21.0356 31.6144 21.3411 32.2238 21.3663L33.5779 21.4224C34.1873 21.4476 34.4929 21.1663 34.5181 20.557Z" fill="#341C31"/>
<path d="M49.068 22.3348C50.5124 22.3945 52.2022 21.9897 53.3445 21.1553C53.7177 20.8768 53.6142 20.6465 53.474 20.2111L53.0712 19.0188C52.9309 18.5835 52.5999 18.3889 52.2529 18.578C51.4678 18.9751 50.4759 19.454 49.6182 19.4185C48.0835 19.355 47.1194 18.6142 46.7091 17.6025L53.0359 17.1409C53.8295 17.0833 53.9357 16.7034 53.9731 15.8006C54.1029 12.6635 52.2206 10.6187 49.3092 10.4982C45.5627 10.3431 43.5331 12.9494 43.3995 16.1769C43.2548 19.6751 45.4795 22.1862 49.068 22.3348ZM48.9621 13.4228C49.9325 13.463 50.5872 14.0327 50.7567 14.8536L46.6746 15.1594C46.9996 13.8616 47.7885 13.3743 48.9621 13.4228Z" fill="#341C31"/>
<path d="M11.847 39.5285L11.9991 24.3182L17.572 24.5411C18.3953 24.5741 18.8111 24.1786 18.8193 23.3547L18.8418 21.1049C18.8503 20.2493 18.4428 19.8209 17.5879 19.7867L1.88243 19.1585C1.0275 19.1243 0.611743 19.5197 0.603187 20.3753L0.580689 22.6252C0.57245 23.4491 0.979966 23.8775 1.80324 23.9104L7.40781 24.1346L7.25571 39.3448C7.24715 40.2004 7.65467 40.6288 8.5096 40.663L10.5678 40.7453C11.4227 40.7795 11.8385 40.384 11.847 39.5285Z" fill="#341C31"/>
<path d="M24.5387 40.0361L24.6002 33.8887C24.6258 31.3219 25.969 30.0442 27.7106 30.1139C28.2489 30.1354 28.8499 30.2229 29.7346 30.4485C30.2716 30.5967 30.5581 30.4497 30.5946 29.9756L30.9476 26.3442C30.9815 26.1236 30.9204 25.8993 30.6687 25.7307C30.2596 25.4608 29.5329 25.2732 28.8363 25.2453C27.3481 25.1858 25.7234 26.1035 24.6613 27.7729L24.6876 25.1428C24.6962 24.2872 24.2887 23.8588 23.4337 23.8246L21.5339 23.7486C20.6789 23.7144 20.2632 24.1099 20.2546 24.9655L20.1057 39.8588C20.0971 40.7144 20.5047 41.1428 21.3596 41.177L23.2594 41.253C24.1144 41.2872 24.5301 40.8917 24.5387 40.0361Z" fill="#341C31"/>
<path d="M40.056 42.3053C42.0825 42.3863 44.4323 41.8146 45.9962 40.6408C46.507 40.2491 46.3518 39.9259 46.1362 39.315L45.5194 37.6419C45.3038 37.031 44.8313 36.7584 44.3535 37.0246C43.2709 37.5837 41.9021 38.258 40.6988 38.2099C38.5456 38.1238 37.1622 37.0857 36.5429 35.6661L45.3874 35.0055C46.4969 34.923 46.6289 34.3894 46.6416 33.1219C46.6857 28.7173 43.9584 25.8502 39.8737 25.6868C34.6175 25.4766 31.8883 29.1398 31.843 33.6712C31.7939 38.5828 35.0214 42.1039 40.056 42.3053ZM39.5159 29.7936C40.8775 29.8481 41.8198 30.6466 42.0934 31.7987L36.3871 32.2362C36.7855 30.4135 37.8694 29.7277 39.5159 29.7936Z" fill="#341C31"/>
<path d="M52.9189 41.8053L52.9867 35.0241C53.0158 32.1088 54.3904 30.8641 56.4802 30.9477C58.0001 31.0085 58.9073 32.1543 58.8841 34.4675L58.8147 41.4072C58.8062 42.2627 59.2137 42.6912 60.0686 42.7254L61.9685 42.8013C62.8234 42.8355 63.2392 42.4401 63.2477 41.5845L63.3314 33.2189C63.3773 28.6241 61.1175 26.5366 58.046 26.4137C56.2728 26.3428 54.2691 27.1503 53.0472 28.9717L53.071 26.5951C53.0795 25.7395 52.672 25.3111 51.8171 25.2769L49.9172 25.2009C49.0623 25.1667 48.6465 25.5622 48.638 26.4178L48.4859 41.628C48.4773 42.4836 48.8848 42.912 49.7398 42.9462L51.6396 43.0222C52.4945 43.0564 52.9103 42.6609 52.9189 41.8053Z" fill="#341C31"/>
<path d="M78.4069 42.4445C78.949 42.0857 78.7948 41.6675 78.5469 41.1186L77.742 39.2478C77.4947 38.6356 77.0539 38.3644 76.5761 38.6306C75.8751 39.0463 74.9521 39.4849 74.1288 39.452C72.7989 39.3988 71.9823 38.7004 72.0026 36.6724L72.033 33.6303L76.4001 34.0586C77.0331 34.1156 77.4815 33.6264 77.4875 33.0243L77.5128 30.4893C77.5188 29.8872 77.3323 29.531 76.636 29.4715L72.0792 29.0039L72.1179 25.1379C72.1242 24.5042 71.8108 24.1746 71.1775 24.1493L68.6443 24.048C68.0111 24.0227 67.6913 24.3269 67.6849 24.9606L67.6488 28.5731L66.0032 28.4121C65.3702 28.3551 64.9219 28.8444 64.9158 29.4465L64.8905 31.9815C64.8845 32.5836 65.071 32.9397 65.7673 32.9993L67.6028 33.1678L67.5616 37.2873C67.5189 41.5651 69.4922 43.7997 72.9436 43.9378C74.8434 44.0138 76.9393 43.4953 78.4069 42.4445Z" fill="#341C31"/>
<path d="M91.883 43.9979C92.5163 44.0233 92.8985 43.8166 93.0616 43.3477C93.1265 43.1918 93.1601 43.0029 93.1623 42.7811L93.1813 40.8798C93.1876 40.246 92.9384 39.824 92.4651 39.6465C92.3071 39.6085 92.1491 39.5705 91.9274 39.5616L85.5946 39.3083L92.5053 32.4521C92.5693 32.3912 92.6336 32.2987 92.6975 32.2379C92.7618 32.1453 92.7941 32.0832 92.8267 31.9894C92.8584 31.9907 92.8587 31.959 92.8587 31.959L92.859 31.9273C92.8913 31.8652 92.8916 31.8335 92.9243 31.7397C92.9569 31.6459 92.9581 31.5192 92.9597 31.3607L92.9787 29.4595C92.981 29.2376 92.9512 29.0462 92.8894 28.8853C92.7359 28.4036 92.3581 28.1666 91.7248 28.1413L81.434 27.7296C80.8323 27.7056 80.4185 27.9109 80.2554 28.3799C80.1905 28.5358 80.1569 28.7247 80.1547 28.9465L80.1357 30.8478C80.1294 31.4815 80.3786 31.9036 80.8519 32.081C81.0099 32.1191 81.1996 32.1584 81.3896 32.166L86.8358 32.3838L80.2439 39.0309C79.8602 39.3959 79.7927 39.8053 79.8842 40.1577L79.8633 42.2491C79.8611 42.4709 79.8908 42.6623 79.9526 42.8233C80.1062 43.3049 80.5156 43.5432 81.1172 43.5673L91.883 43.9979Z" fill="#341C31"/>
<path d="M104.193 38.6609C104.743 38.722 105.095 38.5661 105.278 38.1688C105.348 38.0374 105.394 37.8755 105.415 37.6829L105.599 36.0327C105.66 35.4826 105.48 35.1006 105.082 34.9172C104.948 34.8744 104.813 34.8316 104.621 34.8102L99.12 34.199L105.749 28.6706C105.81 28.6217 105.874 28.5453 105.935 28.4964C105.999 28.42 106.033 28.3681 106.069 28.2886C106.097 28.2917 106.1 28.2642 106.1 28.2642L106.103 28.2367C106.137 28.1847 106.14 28.1572 106.176 28.0778C106.213 27.9983 106.225 27.8883 106.241 27.7508L106.424 26.1005C106.445 25.9079 106.436 25.7399 106.396 25.5962C106.305 25.1684 105.996 24.9392 105.446 24.8781L96.507 23.8848C95.9844 23.8268 95.6055 23.9796 95.4221 24.3769C95.3518 24.5083 95.306 24.6702 95.2846 24.8628L95.1012 26.513C95.0401 27.0631 95.2204 27.4451 95.6177 27.6285C95.7522 27.6713 95.9141 27.7171 96.0792 27.7355L100.81 28.2611L94.4778 33.6275C94.1111 33.9209 94.0163 34.2724 94.0652 34.5841L93.8635 36.3994C93.8421 36.5919 93.8513 36.76 93.891 36.9036C93.9827 37.3315 94.3189 37.5638 94.8415 37.6218L104.193 38.6609Z" fill="#341C31"/>
<path d="M6.31733 3.37299C6.33834 2.90644 6.9307 2.72084 7.21418 3.09199L9.40402 5.95908C9.49382 6.07665 9.63109 6.14842 9.77889 6.15508L13.3829 6.31733C13.8495 6.33834 14.0351 6.9307 13.664 7.21418L10.7969 9.40402C10.6793 9.49382 10.6075 9.63109 10.6009 9.77889L10.4386 13.3829C10.4176 13.8495 9.82524 14.0351 9.54176 13.664L7.35192 10.7969C7.26212 10.6793 7.12486 10.6075 6.97706 10.6009L3.37299 10.4386C2.90644 10.4176 2.72084 9.82524 3.09199 9.54176L5.95908 7.35192C6.07665 7.26212 6.14842 7.12486 6.15508 6.97706L6.31733 3.37299Z" fill="url(#paint0_linear_1168_18469)"/>
<path d="M67.5205 19.3276C67.9257 19.5598 67.8196 20.1714 67.3599 20.2536L64.5844 20.7496C64.4387 20.7756 64.3121 20.8648 64.2385 20.9932L62.8366 23.4394C62.6044 23.8446 61.9927 23.7385 61.9106 23.2787L61.4146 20.5032C61.3885 20.3576 61.2993 20.231 61.171 20.1574L58.7248 18.7555C58.3196 18.5232 58.4257 17.9116 58.8854 17.8295L61.6609 17.3334C61.8066 17.3074 61.9332 17.2182 62.0068 17.0898L63.4087 14.6436C63.6409 14.2384 64.2525 14.3445 64.3347 14.8043L64.8307 17.5798C64.8567 17.7254 64.9459 17.8521 65.0743 17.9256L67.5205 19.3276Z" fill="url(#paint1_linear_1168_18469)"/>
<defs>
<linearGradient id="paint0_linear_1168_18469" x1="6.3792" y1="1.99877" x2="10.3767" y2="14.7572" gradientUnits="userSpaceOnUse">
<stop stop-color="#FFEE8C"/>
<stop offset="1" stop-color="#F7A516"/>
</linearGradient>
<linearGradient id="paint1_linear_1168_18469" x1="68.714" y1="20.0116" x2="57.5313" y2="18.0715" gradientUnits="userSpaceOnUse">
<stop stop-color="#FFEE8C"/>
<stop offset="1" stop-color="#F7A516"/>
</linearGradient>
</defs>
</svg>
