<svg width="34" height="24" viewBox="0 0 34 24" fill="none" xmlns="http://www.w3.org/2000/svg">
<g clip-path="url(#clip0_428_33667)">
<path d="M29.2725 0H4.54528C2.13531 0 0.181641 1.95367 0.181641 4.36364V19.6364C0.181641 22.0463 2.13531 24 4.54528 24H29.2725C31.6825 24 33.6362 22.0463 33.6362 19.6364V4.36364C33.6362 1.95367 31.6825 0 29.2725 0Z" fill="white"/>
<path d="M4.54528 0.5H29.2725C31.4064 0.5 33.1362 2.22981 33.1362 4.36364V19.6364C33.1362 21.7702 31.4064 23.5 29.2725 23.5H4.54528C2.41145 23.5 0.681641 21.7702 0.681641 19.6364V4.36364C0.681641 2.22981 2.41145 0.5 4.54528 0.5Z" stroke="#270E24" stroke-opacity="0.06"/>
<path fill-rule="evenodd" clip-rule="evenodd" d="M9.3388 8.34313C9.05792 8.69505 8.60869 8.97258 8.15938 8.93295C8.10323 8.45716 8.32316 7.95164 8.58062 7.63935C8.86142 7.27753 9.35283 7.01983 9.75058 7C9.79742 7.49564 9.61487 7.98138 9.3388 8.34313ZM9.74592 9.02713C9.35007 9.00298 8.98891 9.15316 8.6972 9.27447C8.50949 9.35258 8.35051 9.41869 8.22956 9.41869C8.09385 9.41869 7.92833 9.34902 7.74243 9.27084C7.49887 9.16836 7.22048 9.05127 6.9285 9.05687C6.25925 9.06676 5.6368 9.46822 5.29515 10.1076C4.59315 11.3863 5.11264 13.2796 5.79124 14.3204C6.12353 14.8359 6.52133 15.4009 7.0455 15.3811C7.2761 15.3719 7.44198 15.2973 7.61363 15.2202C7.81131 15.1313 8.01662 15.0391 8.3372 15.0391C8.64665 15.0391 8.84302 15.1289 9.03145 15.2152C9.21065 15.2972 9.3828 15.376 9.63829 15.3712C10.1811 15.3613 10.5228 14.8557 10.8551 14.3403C11.2136 13.7871 11.3712 13.2471 11.3952 13.1652L11.3979 13.1557C11.3974 13.1551 11.393 13.1529 11.3851 13.1492C11.2653 13.0911 10.3491 12.6468 10.3403 11.4557C10.3315 10.4559 11.0669 9.94938 11.1828 9.8696C11.1899 9.86473 11.1946 9.86145 11.1967 9.85978C10.7287 9.12625 9.99865 9.04698 9.74592 9.02713ZM13.504 15.3167V7.58982H16.2419C17.6552 7.58982 18.6427 8.62073 18.6427 10.1274C18.6427 11.6341 17.6365 12.675 16.2044 12.675H14.6366V15.3167H13.504ZM14.6365 8.60087H15.9422C16.9251 8.60087 17.4867 9.156 17.4867 10.1324C17.4867 11.1088 16.9251 11.6688 15.9376 11.6688H14.6365V8.60087ZM22.3821 14.3898C22.0827 14.9945 21.4227 15.3761 20.7114 15.3761C19.6584 15.3761 18.9236 14.712 18.9236 13.7108C18.9236 12.7196 19.6349 12.1496 20.9501 12.0653L22.3635 11.9761V11.5499C22.3635 10.9204 21.975 10.5785 21.2824 10.5785C20.7114 10.5785 20.2949 10.8907 20.2106 11.3665H19.1904C19.2231 10.3653 20.1123 9.63673 21.3151 9.63673C22.6115 9.63673 23.4539 10.3554 23.4539 11.4706V15.3167H22.4056V14.3898H22.3821ZM21.0155 14.4592C20.4117 14.4592 20.028 14.1519 20.028 13.6811C20.028 13.1953 20.3977 12.9129 21.1044 12.8683L22.3634 12.784V13.2201C22.3634 13.9438 21.783 14.4592 21.0155 14.4592ZM26.9312 15.619C26.4772 16.9721 25.9577 17.4181 24.8532 17.4181C24.7689 17.4181 24.4881 17.4082 24.4227 17.3884V16.4616C24.4928 16.4715 24.666 16.4814 24.7549 16.4814C25.2557 16.4814 25.5365 16.2584 25.7096 15.6785L25.8126 15.3365L23.8938 9.71113H25.0779L26.4117 14.2759H26.435L27.7688 9.71113H28.9202L26.9312 15.619Z" fill="#270E24"/>
</g>
<defs>
<clipPath id="clip0_428_33667">
<rect width="33.4545" height="24" fill="white" transform="translate(0.181641)"/>
</clipPath>
</defs>
</svg>
