<svg width="34" height="24" viewBox="0 0 34 24" fill="none" xmlns="http://www.w3.org/2000/svg">
<g clip-path="url(#clip0_428_33756)">
<path d="M29.5455 0H4.81823C2.40826 0 0.45459 1.95367 0.45459 4.36364V19.6364C0.45459 22.0463 2.40826 24 4.81823 24H29.5455C31.9555 24 33.9091 22.0463 33.9091 19.6364V4.36364C33.9091 1.95367 31.9555 0 29.5455 0Z" fill="white"/>
<path d="M4.81823 0.5H29.5455C31.6793 0.5 33.4091 2.22981 33.4091 4.36364V19.6364C33.4091 21.7702 31.6793 23.5 29.5455 23.5H4.81823C2.6844 23.5 0.95459 21.7702 0.95459 19.6364V4.36364C0.95459 2.22981 2.6844 0.5 4.81823 0.5Z" stroke="#270E24" stroke-opacity="0.06"/>
</g>
<g clip-path="url(#clip1_428_33756)">
<path d="M30.0909 1H5.36364C2.95367 1 1 2.95367 1 5.36364V20.6364C1 23.0463 2.95367 25 5.36364 25H30.0909C32.5009 25 34.4545 23.0463 34.4545 20.6364V5.36364C34.4545 2.95367 32.5009 1 30.0909 1Z" fill="white"/>
<path d="M5.36364 1.5H30.0909C32.2247 1.5 33.9545 3.22981 33.9545 5.36364V20.6364C33.9545 22.7702 32.2247 24.5 30.0909 24.5H5.36364C3.22981 24.5 1.5 22.7702 1.5 20.6364V5.36364C1.5 3.22981 3.22981 1.5 5.36364 1.5Z" stroke="#270E24" stroke-opacity="0.06"/>
<path d="M21.002 6.21551L18.4331 5.99715L9.80273 5.86559V19.3223H19.0151L22.085 18.4764L24.1747 16.6407L25.1968 13.7534V10.4175L23.6682 7.73734L21.002 6.21551Z" fill="white"/>
<path d="M10.0755 6.09142V18.9083H17.7601C22.4005 18.9083 24.9248 16.7179 24.9248 12.4835C24.9248 8.13191 22.1885 6.09142 17.7601 6.09142H10.0755V6.09142ZM17.7601 5.42624C24.5651 5.42624 25.5813 9.84818 25.5813 12.4835C25.5813 17.0558 22.8038 19.5738 17.7601 19.5738C17.7601 19.5738 9.5836 19.5738 9.41895 19.5738C9.41895 19.4062 9.41895 5.59333 9.41895 5.42624C9.5836 5.42624 17.7601 5.42624 17.7601 5.42624Z" fill="#0A0B09"/>
<path d="M14.8164 10.4963C14.8164 10.8971 14.8164 11.5419 14.8164 11.9425C15.0331 11.9425 15.2545 11.9425 15.2545 11.9425C15.558 11.9425 15.8383 11.8536 15.8383 11.2081C15.8383 10.5772 15.5264 10.4963 15.2545 10.4963C15.2545 10.4963 15.0331 10.4963 14.8164 10.4963V10.4963ZM22.124 9.77702H22.8326C22.8326 9.77702 22.8326 11.4141 22.8326 11.9425C22.9897 11.9425 23.4213 11.9425 23.8826 11.9425C23.5947 8.01318 20.5442 7.16422 17.7723 7.16422H14.817V9.7785H15.2545C16.052 9.7785 16.5475 10.3265 16.5475 11.2081C16.5475 12.1176 16.0639 12.6605 15.2545 12.6605H14.817V17.8915H17.7723C22.2791 17.8915 23.8474 15.7708 23.9028 12.6605H22.124V9.77702V9.77702ZM20.1496 11.386H20.6623L20.4279 10.5708H20.3853L20.1496 11.386ZM19.0438 12.6614L19.9019 9.77691H20.9101L21.768 12.6614H21.0303L20.8695 12.1034H19.9426L19.7813 12.6614H19.0438ZM18.7035 11.9425V12.6605H16.9505V9.77809H18.6469V10.4958C18.6469 10.4958 18.0432 10.4958 17.6592 10.4958C17.6592 10.5948 17.6592 10.7083 17.6592 10.83H18.5934V11.5475H17.6592C17.6592 11.6916 17.6592 11.8275 17.6592 11.9425C18.0543 11.9425 18.7035 11.9425 18.7035 11.9425V11.9425Z" fill="#D50172"/>
<path d="M13.8889 11.2181C13.8889 12.0739 13.2046 12.7676 12.3601 12.7676C11.516 12.7676 10.8311 12.0739 10.8311 11.2181C10.8311 10.363 11.516 9.66896 12.3601 9.66896C13.2046 9.66896 13.8889 10.363 13.8889 11.2181ZM11.1337 17.8892H13.5937V13.4516H11.1337V17.8892Z" fill="black"/>
</g>
<defs>
<clipPath id="clip0_428_33756">
<rect width="33.4545" height="24" fill="white" transform="translate(0.45459)"/>
</clipPath>
<clipPath id="clip1_428_33756">
<rect width="17" height="15" fill="white" transform="translate(9 5)"/>
</clipPath>
</defs>
</svg>
