<svg width="37" height="24" viewBox="0 0 37 24" fill="none" xmlns="http://www.w3.org/2000/svg">
<g clip-path="url(#clip0_428_33666)">
<path d="M31.2726 0H4.99987C2.5899 0 0.63623 1.95367 0.63623 4.36364V19.6364C0.63623 22.0463 2.5899 24 4.99987 24H31.2726C33.6826 24 35.6362 22.0463 35.6362 19.6364V4.36364C35.6362 1.95367 33.6826 0 31.2726 0Z" fill="white"/>
<path d="M4.99987 0.5H31.2726C33.4064 0.5 35.1362 2.22981 35.1362 4.36364V19.6364C35.1362 21.7702 33.4064 23.5 31.2726 23.5H4.99987C2.86604 23.5 1.13623 21.7702 1.13623 19.6364V4.36364C1.13623 2.22981 2.86604 0.5 4.99987 0.5Z" stroke="#270E24" stroke-opacity="0.06"/>
<path fill-rule="evenodd" clip-rule="evenodd" d="M17.1664 15.758V12.7371H18.7256C19.3645 12.7371 19.9037 12.523 20.3433 12.1008L20.4488 11.9937C21.2519 11.1196 21.1991 9.75775 20.3433 8.94902C19.9155 8.52088 19.3293 8.28895 18.7256 8.3008H16.2227V15.758H17.1664ZM17.1665 11.8213V9.21658H18.7493C19.0893 9.21658 19.4118 9.34742 19.6522 9.58531C20.1622 10.0848 20.1739 10.9174 19.6815 11.4348C19.4411 11.6905 19.1011 11.8332 18.7493 11.8213H17.1665ZM24.8509 11.0542C24.4464 10.6796 23.8955 10.4892 23.1979 10.4892C22.3011 10.4892 21.627 10.8223 21.1816 11.4823L22.0139 12.0116C22.3187 11.5596 22.7349 11.3337 23.2624 11.3337C23.5965 11.3337 23.9189 11.4585 24.1709 11.6845C24.4171 11.8986 24.5578 12.2079 24.5578 12.5349V12.755C24.1944 12.5527 23.7372 12.4457 23.1745 12.4457C22.518 12.4457 21.9904 12.6004 21.5977 12.9155C21.205 13.2307 21.0057 13.647 21.0057 14.1762C20.994 14.6579 21.1992 15.1158 21.5626 15.425C21.9318 15.758 22.4008 15.9246 22.9517 15.9246C23.6024 15.9246 24.1182 15.6332 24.5109 15.0504H24.552V15.758H25.4547V12.6122C25.4547 11.9521 25.2553 11.4288 24.8509 11.0542ZM22.2896 14.8185C22.0961 14.6758 21.9789 14.4439 21.9789 14.194C21.9789 13.9145 22.1078 13.6826 22.3599 13.4983C22.6179 13.314 22.9403 13.2188 23.3213 13.2188C23.849 13.2129 24.2594 13.3318 24.5525 13.5697C24.5525 13.974 24.3942 14.3249 24.0835 14.6223C23.8021 14.9077 23.421 15.0682 23.0224 15.0682C22.7586 15.0742 22.5006 14.985 22.2896 14.8185ZM27.4827 18L30.6363 10.6557H29.6105L28.1509 14.3189H28.1334L26.6387 10.6557H25.6129L27.6821 15.431L26.5097 18H27.4827Z" fill="#3C4043"/>
<path d="M13.9082 12.083C13.9082 11.7916 13.8848 11.5001 13.8379 11.2148H9.85791V12.862H12.1381C12.0443 13.3913 11.7395 13.867 11.294 14.1643V15.2348H12.6539C13.4511 14.4914 13.9082 13.3913 13.9082 12.083Z" fill="#4285F4"/>
<path d="M9.85835 16.2695C10.9955 16.2695 11.9568 15.8889 12.6543 15.2348L11.2944 14.1643C10.9134 14.426 10.4269 14.5746 9.85835 14.5746C8.75639 14.5746 7.82438 13.8194 7.49027 12.8084H6.08936V13.9145C6.80447 15.3596 8.26402 16.2695 9.85835 16.2695Z" fill="#34A853"/>
<path d="M7.49025 12.8085C7.31437 12.2792 7.31437 11.7024 7.49025 11.1672V10.0671H6.08911C5.48527 11.2743 5.48527 12.7015 6.08911 13.9087L7.49025 12.8085Z" fill="#FBBC04"/>
<path d="M9.85835 9.40095C10.4621 9.38909 11.0424 9.62102 11.4761 10.0432L12.6836 8.81819C11.9157 8.09266 10.9076 7.69426 9.85835 7.70619C8.26402 7.70619 6.80447 8.62197 6.08936 10.067L7.49027 11.1731C7.82438 10.1562 8.75639 9.40095 9.85835 9.40095Z" fill="#EA4335"/>
</g>
<defs>
<clipPath id="clip0_428_33666">
<rect width="35.6364" height="24" fill="white" transform="translate(0.63623)"/>
</clipPath>
</defs>
</svg>
