<svg width="34" height="24" viewBox="0 0 34 24" fill="none" xmlns="http://www.w3.org/2000/svg">
<g clip-path="url(#clip0_428_33655)">
<path d="M29.0909 0H4.36364C1.95367 0 0 1.95367 0 4.36364V19.6364C0 22.0463 1.95367 24 4.36364 24H29.0909C31.5009 24 33.4545 22.0463 33.4545 19.6364V4.36364C33.4545 1.95367 31.5009 0 29.0909 0Z" fill="#FEB4C7"/>
<path fill-rule="evenodd" clip-rule="evenodd" d="M5.18452 15.3796H3.82324V9H5.18452V15.3796ZM8.58307 9H7.25133C7.25133 10.174 6.74947 11.2516 5.87449 11.9566L5.34687 12.3815L7.39121 15.3799H9.07209L7.191 12.6209C8.08263 11.666 8.58307 10.3812 8.58307 9ZM10.7543 15.3785H9.46874V9.00175H10.7543V15.3785ZM14.6385 10.9669V11.2491C14.2916 10.9945 13.8729 10.8449 13.4213 10.8449C12.2262 10.8449 11.2573 11.8871 11.2573 13.1725C11.2573 14.458 12.2262 15.5 13.4213 15.5C13.8729 15.5 14.2916 15.3504 14.6385 15.096V15.3779H15.8663V10.9669H14.6385ZM14.6347 13.1725C14.6347 13.7993 14.1366 14.3074 13.5221 14.3074C12.9076 14.3074 12.4095 13.7993 12.4095 13.1725C12.4095 12.5457 12.9076 12.0377 13.5221 12.0377C14.1366 12.0377 14.6347 12.5457 14.6347 13.1725ZM27.5923 11.2491V10.9669H28.8202V15.3779H27.5923V15.096C27.2455 15.3504 26.8268 15.5 26.3751 15.5C25.1799 15.5 24.2111 14.458 24.2111 13.1725C24.2111 11.8871 25.1799 10.8449 26.3751 10.8449C26.8268 10.8449 27.2455 10.9945 27.5923 11.2491ZM26.4759 14.3074C27.0904 14.3074 27.5885 13.7993 27.5885 13.1725C27.5885 12.5457 27.0904 12.0377 26.4759 12.0377C25.8615 12.0377 25.3634 12.5457 25.3634 13.1725C25.3634 13.7993 25.8615 14.3074 26.4759 14.3074ZM29.353 14.6421C29.353 14.1844 29.698 13.8134 30.1236 13.8134C30.5491 13.8134 30.8941 14.1844 30.8941 14.6421C30.8941 15.0998 30.5491 15.4708 30.1236 15.4708C29.698 15.4708 29.353 15.0998 29.353 14.6421ZM22.0292 10.8482C21.5387 10.8482 21.0746 11.012 20.7642 11.4639V10.9671H19.5416V15.3779H20.7791V13.0599C20.7791 12.3891 21.1974 12.0607 21.7009 12.0607C22.2405 12.0607 22.5508 12.4073 22.5508 13.0508V15.3779H23.7772V12.5729C23.7772 11.5463 23.0183 10.8482 22.0292 10.8482ZM17.7658 10.967V11.5415C18.0119 11.1969 18.4706 10.9672 18.9692 10.9672V12.2508L18.9623 12.2505C18.9598 12.2503 18.9572 12.2502 18.9546 12.2502C18.4687 12.2502 17.7686 12.6236 17.7686 13.3185V15.3779H16.5087V10.967H17.7658Z" fill="#270E24"/>
</g>
<defs>
<clipPath id="clip0_428_33655">
<rect width="33.4545" height="24" fill="white"/>
</clipPath>
</defs>
</svg>
