<svg width="35" height="24" viewBox="0 0 35 24" fill="none" xmlns="http://www.w3.org/2000/svg">
<g clip-path="url(#clip0_428_33670)">
<path d="M29.9093 0H5.182C2.77203 0 0.818359 1.95367 0.818359 4.36364V19.6364C0.818359 22.0463 2.77203 24 5.182 24H29.9093C32.3192 24 34.2729 22.0463 34.2729 19.6364V4.36364C34.2729 1.95367 32.3192 0 29.9093 0Z" fill="#1F72CD"/>
<path fill-rule="evenodd" clip-rule="evenodd" d="M6.81611 8.5L3.68604 15.7468H7.43318L7.89771 14.5913H8.95951L9.42409 15.7468H13.5486V14.8649L13.9162 15.7468H16.0497L16.4172 14.8463V15.7468H24.9951L26.0382 14.6213L27.0149 15.7468L31.4207 15.7561L28.2807 12.1436L31.4207 8.5H27.0831L26.0679 9.60465L25.1219 8.5H15.7903L14.989 10.3705L14.1688 8.5H10.4295V9.35185L10.0135 8.5H6.81611ZM7.54116 9.52902H9.36773L11.4439 14.4431V9.52902H13.4447L15.0484 13.0524L16.5263 9.52902H18.5172V14.7291H17.3058L17.2959 10.6543L15.5298 14.7291H14.4461L12.6701 10.6543V14.7291H10.1779L9.70547 13.5633H7.15289L6.6814 14.7281H5.34614L7.54116 9.52902ZM24.5514 9.52902H19.6255V14.726H24.4751L26.0382 13.0036L27.5447 14.726H29.1197L26.8306 12.1426L29.1197 9.52902H27.6131L26.058 11.2316L24.5514 9.52902ZM8.42969 10.4089L7.58873 12.4856H9.26969L8.42969 10.4089ZM20.8419 11.555V10.6057V10.6048H23.9155L25.2567 12.1229L23.8561 13.6493H20.8419V12.613H23.5292V11.555H20.8419Z" fill="white"/>
</g>
<defs>
<clipPath id="clip0_428_33670">
<rect width="33.4545" height="24" fill="white" transform="translate(0.818359)"/>
</clipPath>
</defs>
</svg>
