<svg width="34" height="24" viewBox="0 0 34 24" fill="none" xmlns="http://www.w3.org/2000/svg">
<g clip-path="url(#clip0_428_33669)">
<path d="M29.3639 0H4.63659C2.22662 0 0.272949 1.95367 0.272949 4.36364V19.6364C0.272949 22.0463 2.22662 24 4.63659 24H29.3639C31.7738 24 33.7275 22.0463 33.7275 19.6364V4.36364C33.7275 1.95367 31.7738 0 29.3639 0Z" fill="white"/>
<path d="M4.63659 0.5H29.3639C31.4977 0.5 33.2275 2.22981 33.2275 4.36364V19.6364C33.2275 21.7702 31.4977 23.5 29.3639 23.5H4.63659C2.50276 23.5 0.772949 21.7702 0.772949 19.6364V4.36364C0.772949 2.22981 2.50276 0.5 4.63659 0.5Z" stroke="#270E24" stroke-opacity="0.06"/>
<path d="M19.4805 12.127C19.4805 15.9393 16.5603 19.03 12.958 19.03C9.35577 19.03 6.43555 15.9393 6.43555 12.127C6.43555 8.31454 9.35577 5.22396 12.958 5.22396C16.5603 5.22396 19.4805 8.31454 19.4805 12.127Z" fill="#ED0006"/>
<path d="M27.9419 12.127C27.9419 15.9393 25.0217 19.03 21.4194 19.03C17.8172 19.03 14.897 15.9393 14.897 12.127C14.897 8.31454 17.8172 5.22396 21.4194 5.22396C25.0217 5.22396 27.9419 8.31454 27.9419 12.127Z" fill="#0099DF"/>
<path fill-rule="evenodd" clip-rule="evenodd" d="M17.1891 6.87302C18.5915 8.13913 19.4807 10.0231 19.4807 12.127C19.4807 14.2308 18.5915 16.1148 17.1891 17.3809C15.7867 16.1148 14.8975 14.2308 14.8975 12.127C14.8975 10.0231 15.7867 8.13913 17.1891 6.87302Z" fill="#6C6BBD"/>
</g>
<defs>
<clipPath id="clip0_428_33669">
<rect width="33.4545" height="24" fill="white" transform="translate(0.272949)"/>
</clipPath>
</defs>
</svg>
