<svg width="34" height="24" viewBox="0 0 34 24" fill="none" xmlns="http://www.w3.org/2000/svg">
<g clip-path="url(#clip0_428_33673)">
<path d="M29.5455 0H4.81823C2.40826 0 0.45459 1.95367 0.45459 4.36364V19.6364C0.45459 22.0463 2.40826 24 4.81823 24H29.5455C31.9555 24 33.9091 22.0463 33.9091 19.6364V4.36364C33.9091 1.95367 31.9555 0 29.5455 0Z" fill="white"/>
<path d="M4.81823 0.5H29.5455C31.6793 0.5 33.4091 2.22981 33.4091 4.36364V19.6364C33.4091 21.7702 31.6793 23.5 29.5455 23.5H4.81823C2.6844 23.5 0.95459 21.7702 0.95459 19.6364V4.36364C0.95459 2.22981 2.6844 0.5 4.81823 0.5Z" stroke="#270E24" stroke-opacity="0.06"/>
<path fill-rule="evenodd" clip-rule="evenodd" d="M10.6106 16.2583H8.58395L7.06418 10.1924C6.99204 9.91331 6.83888 9.66669 6.61358 9.5504C6.05132 9.25825 5.43175 9.02567 4.75586 8.90844V8.67491H8.02067C8.47129 8.67491 8.80926 9.02567 8.86555 9.43309L9.65413 13.8087L11.6798 8.67491H13.6502L10.6106 16.2583ZM14.7767 16.2583H12.8626L14.4388 8.67491H16.3528L14.7767 16.2583ZM18.8291 10.7757C18.8854 10.3673 19.2234 10.1337 19.6176 10.1337C20.2372 10.0751 20.9121 10.1924 21.4754 10.4836L21.8133 8.85084C21.2501 8.61731 20.6305 8.5 20.0682 8.5C18.2105 8.5 16.8587 9.5504 16.8587 11.0082C16.8587 12.1173 17.8162 12.6996 18.4922 13.0504C19.2234 13.4002 19.505 13.6337 19.4487 13.9836C19.4487 14.5082 18.8854 14.7418 18.3231 14.7418C17.6473 14.7418 16.9714 14.5669 16.3528 14.2747L16.0149 15.9084C16.6907 16.1996 17.422 16.3169 18.0978 16.3169C20.1809 16.3745 21.4754 15.3251 21.4754 13.75C21.4754 11.7665 18.8291 11.6502 18.8291 10.7757ZM28.1741 16.2583L26.6543 8.67491H25.0218C24.6839 8.67491 24.3459 8.90844 24.2333 9.25825L21.4191 16.2583H23.3894L23.7827 15.1502H26.2037L26.429 16.2583H28.1741ZM25.3034 10.7171L25.8657 13.5751H24.2896L25.3034 10.7171Z" fill="#172B85"/>
</g>
<defs>
<clipPath id="clip0_428_33673">
<rect width="33.4545" height="24" fill="white" transform="translate(0.45459)"/>
</clipPath>
</defs>
</svg>
