<svg width="35" height="24" viewBox="0 0 35 24" fill="none" xmlns="http://www.w3.org/2000/svg">
<rect x="0.772461" y="0.5" width="33" height="23" rx="3.5" fill="white" stroke="#D1D9E0"/>
<path fill-rule="evenodd" clip-rule="evenodd" d="M14.887 18.4483L15.1077 16.9992L14.616 16.9873H12.2681L13.8998 6.29368C13.9049 6.2613 13.9213 6.23124 13.9453 6.20986C13.9694 6.18847 14.0002 6.17674 14.0323 6.17674H17.9913C19.3057 6.17674 20.2127 6.45938 20.6862 7.01732C20.9083 7.27906 21.0497 7.55265 21.1181 7.85362C21.1899 8.16949 21.1911 8.54683 21.1211 9.00714L21.116 9.04062V9.3356L21.338 9.46561C21.5249 9.56813 21.6735 9.68544 21.7875 9.81973C21.9774 10.0436 22.1002 10.3281 22.1521 10.6652C22.2058 11.012 22.188 11.4248 22.1002 11.892C21.9989 12.4294 21.8351 12.8976 21.6139 13.2805C21.4106 13.6334 21.1514 13.9262 20.8437 14.153C20.5499 14.3686 20.2009 14.5322 19.8063 14.6369C19.4238 14.7398 18.9878 14.7917 18.5096 14.7917H18.2015C17.9813 14.7917 17.7673 14.8737 17.5993 15.0207C17.4308 15.1708 17.3194 15.3758 17.2853 15.6L17.262 15.7305L16.872 18.2848L16.8543 18.3785C16.8496 18.4082 16.8416 18.423 16.8298 18.433C16.8192 18.4422 16.8041 18.4483 16.7893 18.4483H14.887" fill="#28356A"/>
<path fill-rule="evenodd" clip-rule="evenodd" d="M21.548 9.07468C21.5363 9.15276 21.5227 9.23255 21.5076 9.31454C20.9855 12.0852 19.1993 13.0423 16.918 13.0423H15.7565C15.4775 13.0423 15.2423 13.2517 15.1989 13.5361L14.4358 18.5394C14.4075 18.7262 14.5468 18.8945 14.7291 18.8945H16.7893C17.0332 18.8945 17.2404 18.7113 17.2788 18.4626L17.2991 18.3545L17.687 15.8103L17.7119 15.6707C17.7498 15.4212 17.9576 15.2379 18.2015 15.2379H18.5096C20.5055 15.2379 22.0681 14.4004 22.5248 11.9766C22.7155 10.9641 22.6168 10.1186 22.112 9.52399C21.9592 9.34473 21.7697 9.19589 21.548 9.07468" fill="#298FC2"/>
<path fill-rule="evenodd" clip-rule="evenodd" d="M21.0018 8.84963C20.922 8.82556 20.8397 8.80381 20.7553 8.78413C20.6704 8.76495 20.5835 8.74797 20.494 8.73306C20.1808 8.68076 19.8376 8.65595 19.4701 8.65595H16.367C16.2905 8.65595 16.2179 8.67379 16.153 8.70605C16.0099 8.77717 15.9036 8.9172 15.8778 9.08864L15.2176 13.4102L15.1987 13.5362C15.2421 13.2517 15.4773 13.0424 15.7563 13.0424H16.9178C19.1991 13.0424 20.9853 12.0847 21.5074 9.31458C21.523 9.23259 21.5361 9.1528 21.5479 9.07471C21.4158 9.00225 21.2727 8.9403 21.1187 8.88751C21.0806 8.87444 21.0414 8.86185 21.0018 8.84963" fill="#22284F"/>
<path fill-rule="evenodd" clip-rule="evenodd" d="M15.8781 9.08865C15.9039 8.91721 16.0101 8.77718 16.1533 8.70655C16.2187 8.67417 16.2908 8.65633 16.3673 8.65633H19.4703C19.8379 8.65633 20.1811 8.68126 20.4943 8.73356C20.5838 8.74834 20.6707 8.76545 20.7556 8.78463C20.84 8.80418 20.9223 8.82606 21.0021 8.85001C21.0417 8.86223 21.0809 8.87493 21.1193 8.88752C21.2734 8.94031 21.4166 9.00275 21.5486 9.07472C21.704 8.05085 21.5473 7.35373 21.0118 6.72248C20.4212 6.02743 19.3555 5.73001 17.9918 5.73001H14.0327C13.7542 5.73001 13.5166 5.93933 13.4735 6.22429L11.8245 17.0279C11.792 17.2416 11.9515 17.4344 12.1601 17.4344H14.6042L15.8781 9.08865" fill="#28356A"/>
</svg>
