<svg width="35" height="24" viewBox="0 0 35 24" fill="none" xmlns="http://www.w3.org/2000/svg">
<g clip-path="url(#clip0_428_33668)">
<path d="M29.818 0H5.09069C2.68072 0 0.727051 1.95367 0.727051 4.36364V19.6364C0.727051 22.0463 2.68072 24 5.09069 24H29.818C32.2279 24 34.1816 22.0463 34.1816 19.6364V4.36364C34.1816 1.95367 32.2279 0 29.818 0Z" fill="#5A31F4"/>
<path d="M19.5614 11.0612C19.5614 12.6013 18.5293 13.7007 17.0871 13.7007H15.7283C15.7133 13.7007 15.6984 13.7039 15.6846 13.7099C15.6707 13.7159 15.6582 13.7247 15.6476 13.7359C15.637 13.747 15.6286 13.7601 15.623 13.7747C15.6172 13.7892 15.6144 13.8048 15.6144 13.8204V15.8447C15.6144 15.8763 15.6024 15.9066 15.5811 15.9291C15.5598 15.9515 15.5308 15.9642 15.5006 15.9644H14.5497C14.5271 15.9642 14.5051 15.9572 14.4863 15.944C14.4675 15.9308 14.4528 15.9121 14.4441 15.8903C14.4384 15.876 14.4354 15.8607 14.4353 15.8452V8.54087C14.4352 8.52517 14.4382 8.5096 14.4438 8.49513C14.4495 8.48058 14.4579 8.46735 14.4685 8.45622C14.479 8.44509 14.4916 8.43629 14.5055 8.43026C14.5193 8.42422 14.5342 8.42117 14.5492 8.42117H17.0931C18.5293 8.41942 19.5614 9.51884 19.5614 11.0612ZM18.3756 11.0612C18.3756 10.1758 17.7985 9.52866 17.0158 9.52866H15.7283C15.7133 9.52866 15.6984 9.53178 15.6846 9.53775C15.6707 9.54378 15.6582 9.55266 15.6476 9.56378C15.637 9.57491 15.6286 9.58807 15.623 9.60262C15.6172 9.61709 15.6144 9.63266 15.6144 9.64837V12.4672C15.6144 12.4988 15.6264 12.5291 15.6478 12.5514C15.6691 12.5737 15.6981 12.5863 15.7283 12.5863H17.0158C17.7985 12.5921 18.3756 11.9444 18.3756 11.0612ZM19.8433 14.5631C19.8334 14.3268 19.8802 14.0918 19.9792 13.8793C20.0782 13.6668 20.2265 13.4836 20.4104 13.3463C20.7814 13.0542 21.3613 12.9032 22.2126 12.872L23.1192 12.8385V12.5585C23.1192 11.9975 22.7598 11.7604 22.1827 11.7604C21.6056 11.7604 21.2397 11.9744 21.1557 12.3243C21.1488 12.3489 21.1343 12.3705 21.1145 12.3855C21.0947 12.4006 21.0707 12.4084 21.0462 12.4076H20.1507C20.1342 12.4081 20.1178 12.4047 20.1027 12.3978C20.0875 12.3909 20.0741 12.3806 20.0632 12.3676C20.0523 12.3546 20.0443 12.3393 20.0398 12.3228C20.0352 12.3062 20.0342 12.2887 20.0368 12.2717C20.1694 11.4423 20.8289 10.812 22.2237 10.812C23.7073 10.812 24.243 11.5349 24.243 12.9148V15.8447C24.2427 15.8766 24.2304 15.9071 24.2086 15.9295C24.1868 15.952 24.1575 15.9645 24.127 15.9644H23.2242C23.194 15.9643 23.1651 15.9518 23.1435 15.9297C23.1329 15.9185 23.1246 15.9054 23.1189 15.8909C23.1132 15.8764 23.1103 15.8609 23.1103 15.8452V15.626C23.1107 15.6079 23.1057 15.5901 23.0962 15.575C23.0867 15.5599 23.073 15.5481 23.0569 15.5413C23.0409 15.5345 23.0232 15.5329 23.0064 15.5367C22.9894 15.5407 22.974 15.5497 22.9622 15.563C22.6913 15.8712 22.2541 16.0939 21.5536 16.0939C20.5232 16.0939 19.8433 15.5329 19.8433 14.5631ZM23.1192 13.928V13.7007L21.9451 13.7655C21.3264 13.7985 20.9666 14.0674 20.9666 14.5202C20.9666 14.9297 21.2966 15.1564 21.8732 15.1564C22.6565 15.1564 23.1192 14.714 23.1192 13.928ZM25.1496 18.1782V17.3292C25.1498 17.3114 25.1537 17.2939 25.1611 17.2778C25.1684 17.2617 25.1791 17.2476 25.1923 17.2364C25.2055 17.2251 25.2208 17.217 25.2374 17.2127C25.2539 17.2084 25.2711 17.2079 25.2878 17.2112C25.426 17.2384 25.567 17.2523 25.7079 17.2529C25.9502 17.2652 26.1896 17.1921 26.3875 17.0453C26.5854 16.8985 26.7306 16.6865 26.7997 16.4432L26.8583 16.2477C26.8668 16.2215 26.8668 16.193 26.8583 16.1668L24.9771 11.1121C24.9703 11.0938 24.9679 11.074 24.97 11.0545C24.9721 11.035 24.9787 11.0163 24.9893 11C24.9998 10.9837 25.014 10.9704 25.0305 10.9611C25.0471 10.9519 25.0656 10.9469 25.0843 10.9468H25.9965C26.0198 10.947 26.0424 10.9545 26.0616 10.9685C26.0807 10.9824 26.0954 11.002 26.1038 11.0248L27.3812 14.5897C27.3892 14.6133 27.404 14.6338 27.4237 14.6484C27.4432 14.6628 27.4667 14.6706 27.4907 14.6706C27.5147 14.6706 27.5381 14.6628 27.5577 14.6484C27.5774 14.6338 27.5921 14.6133 27.6001 14.5897L28.7096 11.0346C28.7173 11.0103 28.7321 10.9892 28.752 10.9743C28.7718 10.9593 28.7957 10.9513 28.8202 10.9513H29.7638C29.7827 10.9515 29.8013 10.9564 29.818 10.9657C29.8347 10.9749 29.849 10.9883 29.8597 11.0046C29.8704 11.0209 29.8771 11.0396 29.8794 11.0593C29.8817 11.0789 29.8794 11.0988 29.8727 11.1173L27.8605 16.7306C27.3973 18.0353 26.6029 18.369 25.7284 18.369C25.5625 18.3737 25.3967 18.3529 25.2364 18.3072C25.2097 18.2998 25.1864 18.2828 25.1705 18.2592C25.1547 18.2356 25.1472 18.207 25.1496 18.1782ZM8.32528 8.00015C7.12684 7.9912 5.97072 8.46306 5.09472 9.31869C5.05726 9.35462 5.0339 9.40378 5.0292 9.45673C5.0245 9.50968 5.03879 9.56247 5.06928 9.60502L5.61158 10.38C5.62916 10.4057 5.65193 10.4272 5.67829 10.4428C5.70465 10.4584 5.73396 10.4678 5.76415 10.4703C5.79435 10.4728 5.8247 10.4683 5.85306 10.4572C5.88142 10.4461 5.90712 10.4286 5.92833 10.406C6.24332 10.0765 6.61792 9.81607 7.03023 9.63978C7.44254 9.46357 7.8843 9.37506 8.32965 9.37942C10.1893 9.37942 11.1606 10.8438 11.1606 12.2896C11.1606 13.8615 10.1401 14.9673 8.6735 14.9893C7.54029 14.9893 6.68622 14.2033 6.68622 13.1652C6.68739 12.903 6.74419 12.6442 6.85249 12.4077C6.9608 12.1712 7.11792 11.9628 7.31254 11.7975C7.35368 11.7615 7.37968 11.7101 7.38495 11.6543C7.39022 11.5985 7.37435 11.5427 7.34072 11.4991L6.77079 10.746C6.75356 10.7233 6.73214 10.7044 6.70779 10.6904C6.68345 10.6764 6.65668 10.6677 6.62906 10.6647C6.60144 10.6617 6.57353 10.6646 6.54699 10.6731C6.52044 10.6816 6.49579 10.6956 6.47449 10.7143C6.12447 11.0092 5.84201 11.3825 5.64784 11.8066C5.45366 12.2308 5.35268 12.695 5.35232 13.1652C5.35232 14.9523 6.80396 16.3541 8.66354 16.3657H8.68841C10.8963 16.3356 12.4928 14.6249 12.4928 12.2867C12.4928 10.2105 11.0312 8.00015 8.32579 8.00015H8.32528Z" fill="white"/>
</g>
<defs>
<clipPath id="clip0_428_33668">
<rect width="33.4545" height="24" fill="white" transform="translate(0.727051)"/>
</clipPath>
</defs>
</svg>
