<svg width="40" height="40" viewBox="0 0 40 40" fill="none" xmlns="http://www.w3.org/2000/svg">
<path d="M2.49952 23.7496C1.83669 23.7506 1.20133 24.0145 0.732767 24.4832C0.264202 24.952 0.00068253 25.5875 0 26.2503C0.00102385 26.9128 0.264694 27.548 0.733222 28.0165C1.20175 28.485 1.83692 28.7486 2.49952 28.7496H8.93864L7.45467 37.0593C7.33854 37.7174 7.48435 38.3806 7.86631 38.929C8.09569 39.2606 8.40236 39.5314 8.75982 39.718C9.11729 39.9046 9.51482 40.0014 9.91806 40C11.131 40 12.1634 39.1329 12.3776 37.9393L14.019 28.7496H22.8557L21.3717 37.0593C21.2556 37.7174 21.4001 38.3806 21.7821 38.929C22.0115 39.2609 22.3183 39.5319 22.6761 39.7185C23.0338 39.9051 23.4316 40.0017 23.8351 40C25.0468 40 26.0804 39.1329 26.2946 37.9393L27.9347 28.7496H37.5005C38.1631 28.7486 38.7982 28.485 39.2668 28.0165C39.7353 27.548 39.999 26.9128 40 26.2503C39.9993 25.5875 39.7358 24.952 39.2672 24.4832C38.7987 24.0145 38.1633 23.7506 37.5005 23.7496H28.829L30.1671 16.2502H37.5005C38.1631 16.2492 38.7982 15.9856 39.2668 15.5171C39.7353 15.0486 39.999 14.4134 40 13.7509C39.9993 13.0881 39.7358 12.4526 39.2672 11.9839C38.7987 11.5151 38.1633 11.2513 37.5005 11.2502H31.0614L32.5453 2.94053C32.6038 2.61715 32.5975 2.28538 32.5269 1.96444C32.4562 1.6435 32.3226 1.33977 32.1337 1.07085C31.9467 0.801137 31.7081 0.571158 31.4317 0.3942C31.1552 0.217243 30.8465 0.0968151 30.5233 0.0398762C29.8706 -0.0751094 29.199 0.0730728 28.6554 0.452001C28.1117 0.830929 27.7403 1.40975 27.6224 2.06182L25.981 11.2502H17.1443L18.6283 2.94053C18.7444 2.28246 18.5999 1.61924 18.2179 1.07085C17.836 0.522458 17.263 0.157296 16.6062 0.0398762C16.2829 -0.0186393 15.9512 -0.0127026 15.6302 0.0573451C15.3092 0.127393 15.0052 0.260171 14.7356 0.448053C14.4661 0.635936 14.2363 0.875219 14.0595 1.15216C13.8827 1.4291 13.7624 1.73824 13.7054 2.06182L12.0653 11.2502H2.49952C1.83669 11.2513 1.20133 11.5151 0.732767 11.9839C0.264202 12.4526 0.00068253 13.0881 0 13.7509C0.00102385 14.4134 0.264694 15.0486 0.733222 15.5171C1.20175 15.9856 1.83692 16.2492 2.49952 16.2502H11.171L9.83289 23.7496H2.49952ZM16.2514 16.2502H25.0881L23.7486 23.7496H14.9119L16.2514 16.2502V16.2502Z" fill="#F44C76"/>
</svg>
