<svg width="20" height="20" viewBox="0 0 20 20" fill="none" xmlns="http://www.w3.org/2000/svg">
<path d="M10.0006 0C7.28479 0 6.94396 0.0118752 5.87729 0.0604169C4.81271 0.109167 4.08604 0.277708 3.45021 0.525C2.7925 0.780417 2.23458 1.12208 1.67875 1.67813C1.1225 2.23396 0.780833 2.79187 0.524583 3.44937C0.276667 4.08542 0.107917 4.81229 0.06 5.87646C0.0125 6.94312 0 7.28417 0 10C0 12.7158 0.0120835 13.0556 0.0604169 14.1223C0.109375 15.1869 0.277917 15.9135 0.525 16.5494C0.780625 17.2071 1.12229 17.765 1.67833 18.3208C2.23396 18.8771 2.79187 19.2196 3.44917 19.475C4.08542 19.7223 4.81229 19.8908 5.87667 19.9396C6.94333 19.9881 7.28396 20 9.99958 20C12.7156 20 13.0554 19.9881 14.1221 19.9396C15.1867 19.8908 15.9142 19.7223 16.5504 19.475C17.2079 19.2196 17.765 18.8771 18.3206 18.3208C18.8769 17.765 19.2185 17.2071 19.4748 16.5496C19.7206 15.9135 19.8894 15.1867 19.9394 14.1225C19.9873 13.0558 19.9998 12.7158 19.9998 10C19.9998 7.28417 19.9873 6.94333 19.9394 5.87667C19.8894 4.81208 19.7206 4.08542 19.4748 3.44958C19.2185 2.79187 18.8769 2.23396 18.3206 1.67813C17.7644 1.12188 17.2081 0.780208 16.5498 0.525C15.9123 0.277708 15.1852 0.109167 14.1206 0.0604169C13.054 0.0118752 12.7144 0 9.99771 0H10.0006ZM9.10354 1.80208C9.36979 1.80167 9.66687 1.80208 10.0006 1.80208C12.6706 1.80208 12.9871 1.81167 14.0415 1.85958C15.0165 1.90417 15.5456 2.06708 15.8981 2.20396C16.3648 2.38521 16.6975 2.60188 17.0473 2.95187C17.3973 3.30188 17.614 3.63521 17.7956 4.10187C17.9325 4.45396 18.0956 4.98312 18.14 5.95812C18.1879 7.01229 18.1983 7.32896 18.1983 9.99771C18.1983 12.6665 18.1879 12.9831 18.14 14.0373C18.0954 15.0123 17.9325 15.5415 17.7956 15.8935C17.6144 16.3602 17.3973 16.6925 17.0473 17.0423C16.6973 17.3923 16.365 17.609 15.8981 17.7902C15.546 17.9277 15.0165 18.0902 14.0415 18.1348C12.9873 18.1827 12.6706 18.1931 10.0006 18.1931C7.33042 18.1931 7.01396 18.1827 5.95979 18.1348C4.98479 18.0898 4.45562 17.9269 4.10292 17.79C3.63625 17.6087 3.30292 17.3921 2.95292 17.0421C2.60292 16.6921 2.38625 16.3596 2.20458 15.8927C2.06771 15.5406 1.90458 15.0115 1.86021 14.0365C1.81229 12.9823 1.80271 12.6656 1.80271 9.99521C1.80271 7.32479 1.81229 7.00979 1.86021 5.95563C1.90479 4.98063 2.06771 4.45146 2.20458 4.09896C2.38583 3.63229 2.60292 3.29896 2.95292 2.94896C3.30292 2.59896 3.63625 2.38229 4.10292 2.20062C4.45542 2.06312 4.98479 1.90063 5.95979 1.85583C6.88229 1.81417 7.23979 1.80167 9.10354 1.79958V1.80208ZM15.3385 3.4625C15.1012 3.4625 14.8692 3.53289 14.6718 3.66477C14.4745 3.79664 14.3207 3.98408 14.2298 4.20338C14.139 4.42267 14.1153 4.66397 14.1616 4.89676C14.208 5.12955 14.3223 5.34337 14.4902 5.51118C14.658 5.67898 14.8719 5.79324 15.1047 5.83949C15.3375 5.88575 15.5788 5.86193 15.798 5.77104C16.0173 5.68015 16.2047 5.52627 16.3365 5.32888C16.4683 5.13149 16.5386 4.89944 16.5385 4.66208C16.5385 3.99958 16.001 3.46208 15.3385 3.46208V3.4625ZM10.0006 4.86458C7.16458 4.86458 4.86521 7.16396 4.86521 10C4.86521 12.836 7.16458 15.1344 10.0006 15.1344C12.8367 15.1344 15.1354 12.836 15.1354 10C15.1354 7.16396 12.8365 4.86458 10.0004 4.86458H10.0006ZM10.0006 6.66667C11.8415 6.66667 13.334 8.15896 13.334 10C13.334 11.8408 11.8415 13.3333 10.0006 13.3333C8.15958 13.3333 6.66729 11.8408 6.66729 10C6.66729 8.15896 8.15958 6.66667 10.0006 6.66667Z" fill="black"/>
</svg>
