<svg width="56" height="30" viewBox="0 0 56 30" fill="none" xmlns="http://www.w3.org/2000/svg">
<rect width="56" height="30" rx="4" fill="#FEB4C7"/>
<path d="M13.028 19.83H15.506L12.328 15.504C14.274 13.796 14.806 11.598 14.806 10.03H12.804C12.804 11.962 11.754 14.09 9.35999 15.098V10.03H7.34399V19.83H9.35999V17.184C9.83599 17.016 10.27 16.82 10.676 16.61L13.028 19.83Z" fill="black"/>
<path d="M15.5962 19.83H17.5282V10.03H15.5962V19.83Z" fill="black"/>
<path d="M23.5448 13.054V13.712C23.0548 13.194 22.3828 12.914 21.5428 12.914C19.5828 12.914 18.0288 14.482 18.0288 16.442C18.0288 18.402 19.5828 19.97 21.5428 19.97C22.3828 19.97 23.0548 19.69 23.5448 19.172V19.83H25.3928V13.054H23.5448ZM21.7388 18.192C20.7308 18.192 19.9328 17.422 19.9328 16.442C19.9328 15.462 20.7308 14.692 21.7388 14.692C22.7468 14.692 23.5448 15.462 23.5448 16.442C23.5448 17.422 22.7468 18.192 21.7388 18.192Z" fill="black"/>
<path d="M28.2821 13.824V13.054H26.4341V19.83H28.3381V16.736C28.3381 15.616 28.9961 14.986 30.1441 14.986V12.942C29.2761 12.914 28.6601 13.208 28.2821 13.824Z" fill="black"/>
<path d="M34.6865 12.9C33.7625 12.9 33.0765 13.236 32.6005 13.782V13.054H30.7525V19.83H32.6565V16.274C32.6565 15.224 33.3145 14.636 34.1965 14.636C35.0785 14.636 35.7365 15.224 35.7365 16.274V19.83H37.6405V15.924C37.6405 14.23 36.5485 12.9 34.6865 12.9Z" fill="black"/>
<path d="M43.5409 13.054V13.712C43.0509 13.194 42.3789 12.914 41.5389 12.914C39.5789 12.914 38.0249 14.482 38.0249 16.442C38.0249 18.402 39.5789 19.97 41.5389 19.97C42.3789 19.97 43.0509 19.69 43.5409 19.172V19.83H45.3889V13.054H43.5409ZM41.7349 18.192C40.7269 18.192 39.9289 17.422 39.9289 16.442C39.9289 15.462 40.7269 14.692 41.7349 14.692C42.7429 14.692 43.5409 15.462 43.5409 16.442C43.5409 17.422 42.7429 18.192 41.7349 18.192Z" fill="black"/>
<path d="M47.3822 19.942C48.0822 19.942 48.6562 19.368 48.6562 18.668C48.6562 17.968 48.0822 17.394 47.3822 17.394C46.6822 17.394 46.1082 17.968 46.1082 18.668C46.1082 19.368 46.6822 19.942 47.3822 19.942Z" fill="black"/>
</svg>
