<svg width="123" height="49" viewBox="0 0 123 49" fill="none" xmlns="http://www.w3.org/2000/svg">
<g clip-path="url(#clip0_1358_4413)">
<path d="M27.6289 20.7369L28.1287 8.66218L32.5561 8.84542C33.2101 8.87249 33.5507 8.559 33.5778 7.90496L33.6517 6.1189C33.6798 5.4397 33.3663 5.09914 32.6871 5.07103L20.2099 4.55462C19.5307 4.52651 19.1901 4.84 19.162 5.5192L19.0881 7.30526C19.061 7.95931 19.3745 8.29987 20.0285 8.32693L24.4811 8.51122L23.9813 20.586C23.9532 21.2652 24.2667 21.6057 24.9459 21.6338L26.581 21.7015C27.2603 21.7296 27.6008 21.4161 27.6289 20.7369Z" fill="#341C31"/>
<path d="M38.0312 21.1675L38.2332 16.2873C38.329 13.9729 39.4534 12.9863 41.1136 13.055C42.3211 13.105 43.0142 14.0156 42.9382 15.852L42.6893 21.8642C42.6612 22.5434 42.9747 22.884 43.6539 22.9121L45.1633 22.9746C45.8425 23.0027 46.183 22.6892 46.2111 22.01L46.5068 14.8658C46.6578 11.2182 44.9122 9.55841 42.4721 9.45742C41.0634 9.39911 39.4494 10.0379 38.432 11.4825L38.6767 5.57091C38.7048 4.89171 38.3913 4.55115 37.7121 4.52304L36.2028 4.46057C35.5236 4.43246 35.183 4.74595 35.1549 5.42515L34.5094 21.0217C34.4813 21.7009 34.7948 22.0415 35.474 22.0696L36.9833 22.132C37.6625 22.1602 38.0031 21.8467 38.0312 21.1675Z" fill="#341C31"/>
<path d="M54.2485 23.149C55.8585 23.2156 57.7418 22.7644 59.0151 21.8343C59.4311 21.524 59.3157 21.2672 59.1594 20.782L58.7105 19.4531C58.5541 18.9678 58.1851 18.7509 57.7984 18.9617C56.9234 19.4043 55.8177 19.9381 54.8618 19.8985C53.1512 19.8277 52.0766 19.0021 51.6193 17.8744L58.6711 17.3599C59.5557 17.2957 59.674 16.8723 59.7157 15.866C59.8604 12.3694 57.7624 10.0903 54.5173 9.95595C50.3415 9.78312 48.0794 12.6882 47.9305 16.2854C47.7691 20.1846 50.2487 22.9835 54.2485 23.149ZM54.1304 13.2158C55.2121 13.2605 55.9418 13.8955 56.1307 14.8105L51.5808 15.1514C51.9431 13.7048 52.8223 13.1616 54.1304 13.2158Z" fill="#341C31"/>
<path d="M12.7618 42.3134L12.9313 25.3601L19.1429 25.6086C20.0605 25.6453 20.5239 25.2045 20.5331 24.2862L20.5581 21.7785C20.5677 20.8249 20.1135 20.3474 19.1606 20.3093L1.65529 19.6091C0.702378 19.5709 0.238979 20.0117 0.229443 20.9654L0.204366 23.473C0.195183 24.3913 0.649399 24.8688 1.56701 24.9055L7.81386 25.1554L7.64432 42.1087C7.63479 43.0623 8.089 43.5398 9.04191 43.578L11.3359 43.6697C12.2889 43.7078 12.7523 43.267 12.7618 42.3134Z" fill="#341C31"/>
<path d="M26.9079 42.8792L26.9764 36.0273C27.005 33.1664 28.5022 31.7423 30.4433 31.82C31.0433 31.844 31.7131 31.9414 32.6992 32.1929C33.2978 32.3581 33.6172 32.1942 33.6578 31.6659L34.0513 27.6183C34.0891 27.3724 34.021 27.1224 33.7404 26.9345C33.2844 26.6336 32.4744 26.4245 31.698 26.3935C30.0392 26.3271 28.2283 27.35 27.0446 29.2107L27.0739 26.2792C27.0834 25.3255 26.6292 24.848 25.6763 24.8099L23.5587 24.7252C22.6058 24.6871 22.1424 25.1279 22.1329 26.0815L21.9669 42.6816C21.9574 43.6352 22.4116 44.1127 23.3645 44.1509L25.4821 44.2356C26.435 44.2737 26.8984 43.8329 26.9079 42.8792Z" fill="#341C31"/>
<path d="M44.2035 45.4084C46.4622 45.4988 49.0813 44.8615 50.8244 43.5532C51.3937 43.1167 51.2208 42.7564 50.9804 42.0755L50.2929 40.2106C50.0526 39.5297 49.526 39.226 48.9935 39.5227C47.7868 40.1457 46.2611 40.8974 44.9199 40.8437C42.52 40.7477 40.9781 39.5907 40.2878 38.0084L50.1458 37.2721C51.3824 37.1802 51.5296 36.5854 51.5438 35.1726C51.5928 30.2633 48.5531 27.0677 44.0003 26.8855C38.1417 26.6512 35.0998 30.7342 35.0493 35.7849C34.9945 41.2594 38.5919 45.184 44.2035 45.4084ZM43.6015 31.4629C45.1191 31.5236 46.1694 32.4137 46.4743 33.6979L40.1142 34.1855C40.5582 32.1539 41.7662 31.3895 43.6015 31.4629Z" fill="#341C31"/>
<path d="M58.5404 44.8512L58.6159 37.2929C58.6484 34.0435 60.1805 32.6561 62.5098 32.7493C64.2039 32.817 65.215 34.0942 65.1893 36.6725L65.1119 44.4074C65.1024 45.361 65.5566 45.8385 66.5095 45.8767L68.6271 45.9614C69.58 45.9995 70.0434 45.5587 70.0529 44.6051L70.1462 35.2807C70.1974 30.1594 67.6785 27.8327 64.2551 27.6957C62.2787 27.6167 60.0454 28.5167 58.6834 30.5469L58.7099 27.8979C58.7194 26.9443 58.2652 26.4668 57.3123 26.4287L55.1947 26.344C54.2418 26.3059 53.7784 26.7467 53.7689 27.7003L53.5994 44.6536C53.5898 45.6072 54.044 46.0847 54.9969 46.1228L57.1145 46.2075C58.0674 46.2456 58.5308 45.8048 58.5404 44.8512Z" fill="#341C31"/>
<path d="M88.025 47.4439C88.9779 47.4821 89.4413 47.0413 89.4509 46.0876L89.684 22.7769C89.6935 21.8232 89.2393 21.3457 88.2864 21.3076L86.1688 21.2229C85.2159 21.1848 84.7525 21.6256 84.743 22.5792L84.6794 28.9367C83.5176 28.6076 82.3543 28.4197 81.1543 28.3717C76.178 28.1727 72.2609 31.514 72.2054 37.0591C72.1507 42.5336 75.4678 46.235 79.5618 46.3987C81.5029 46.4764 83.2746 45.8406 84.5229 44.5832L84.5099 45.89C84.5003 46.8436 84.9545 47.3211 85.9074 47.3592L88.025 47.4439ZM80.6365 41.3184C78.4836 41.2323 77.1235 39.5525 77.1464 37.2568C77.1729 34.6078 78.8447 33.3673 81.1035 33.4577C82.4446 33.5113 83.5722 33.7331 84.6275 34.1287L84.601 36.7776C84.571 39.7798 83.107 41.4172 80.6365 41.3184Z" fill="#341C31"/>
<path d="M105.313 47.4288C106.019 47.457 106.445 47.2267 106.627 46.704C106.699 46.5302 106.736 46.3197 106.739 46.0725L106.76 43.9533C106.767 43.2469 106.489 42.7765 105.962 42.5787C105.786 42.5363 105.609 42.494 105.362 42.4841L98.3038 42.2017L106.007 34.5598C106.078 34.492 106.149 34.3889 106.221 34.3211C106.292 34.2179 106.328 34.1487 106.365 34.0441C106.4 34.0456 106.4 34.0102 106.4 34.0102L106.401 33.9749C106.437 33.9057 106.437 33.8704 106.473 33.7658C106.51 33.6613 106.511 33.52 106.513 33.3434L106.534 31.2242C106.537 30.977 106.503 30.7637 106.435 30.5843C106.263 30.0474 105.842 29.7832 105.137 29.755L93.6664 29.2962C92.9958 29.2694 92.5346 29.4983 92.3528 30.021C92.2804 30.1948 92.243 30.4053 92.2406 30.6525L92.2194 32.7717C92.2123 33.478 92.4901 33.9485 93.0177 34.1463C93.1938 34.1886 93.4052 34.2324 93.617 34.2409L99.6873 34.4837L92.34 41.8925C91.9122 42.2994 91.8371 42.7557 91.9391 43.1485L91.9158 45.4796C91.9133 45.7268 91.9465 45.9401 92.0153 46.1195C92.1864 46.6564 92.6428 46.922 93.3133 46.9488L105.313 47.4288Z" fill="#341C31"/>
<path d="M120.071 41.1576C120.684 41.2257 121.076 41.052 121.28 40.6092C121.358 40.4627 121.409 40.2822 121.433 40.0676L121.638 38.2282C121.706 37.6151 121.505 37.1893 121.062 36.9849C120.912 36.9372 120.762 36.8895 120.548 36.8657L114.416 36.1844L121.805 30.0225C121.873 29.968 121.944 29.8828 122.012 29.8283C122.084 29.7432 122.121 29.6853 122.162 29.5967C122.193 29.6001 122.196 29.5695 122.196 29.5695L122.2 29.5388C122.237 29.4809 122.241 29.4502 122.281 29.3617C122.322 29.2731 122.336 29.1505 122.353 28.9972L122.557 27.1578C122.581 26.9432 122.571 26.7559 122.527 26.5958C122.424 26.1189 122.08 25.8634 121.467 25.7953L111.504 24.6883C110.921 24.6235 110.499 24.7939 110.295 25.2367C110.216 25.3831 110.165 25.5637 110.141 25.7783L109.937 27.6177C109.869 28.2308 110.07 28.6566 110.513 28.8609C110.663 28.9086 110.843 28.9597 111.027 28.9802L116.3 29.566L109.242 35.5475C108.833 35.8745 108.728 36.2662 108.782 36.6136L108.558 38.637C108.534 38.8515 108.544 39.0389 108.588 39.199C108.69 39.6759 109.065 39.9347 109.648 39.9995L120.071 41.1576Z" fill="#341C31"/>
<path d="M6.57883 2.46858C6.60918 1.79438 7.46519 1.52617 7.87484 2.0625L9.99286 4.83557C10.1226 5.00547 10.321 5.10918 10.5346 5.1188L14.0204 5.27574C14.6946 5.30609 14.9629 6.1621 14.4265 6.57175L11.6535 8.68977C11.4835 8.81955 11.3798 9.0179 11.3702 9.23148L11.2133 12.7174C11.1829 13.3916 10.3269 13.6598 9.91727 13.1234L7.79925 10.3504C7.66948 10.1805 7.47112 10.0767 7.25754 10.0671L3.77167 9.91019C3.09747 9.87984 2.82926 9.02383 3.36559 8.61418L6.13866 6.49616C6.30856 6.36638 6.41228 6.16803 6.42189 5.95445L6.57883 2.46858Z" fill="url(#paint0_linear_1358_4413)"/>
<path d="M74.4209 19.5716C75.0064 19.9072 74.8531 20.791 74.1887 20.9097L71.6186 21.3691C71.4082 21.4067 71.2252 21.5356 71.1189 21.7211L69.8207 23.9862C69.4851 24.5718 68.6012 24.4184 68.4825 23.7541L68.0232 21.184C67.9856 20.9735 67.8567 20.7905 67.6712 20.6842L65.406 19.386C64.8205 19.0504 64.9738 18.1666 65.6382 18.0479L68.2083 17.5886C68.4187 17.5509 68.6017 17.4221 68.708 17.2366L70.0062 14.9714C70.3418 14.3858 71.2257 14.5392 71.3444 15.2035L71.8037 17.7736C71.8413 17.9841 71.9702 18.1671 72.1557 18.2734L74.4209 19.5716Z" fill="url(#paint1_linear_1358_4413)"/>
</g>
<defs>
<linearGradient id="paint0_linear_1358_4413" x1="6.66851" y1="0.482877" x2="11.1242" y2="14.7034" gradientUnits="userSpaceOnUse">
<stop stop-color="#FFEE8C"/>
<stop offset="1" stop-color="#F7A516"/>
</linearGradient>
<linearGradient id="paint1_linear_1358_4413" x1="76.1457" y1="20.5602" x2="63.6814" y2="18.3977" gradientUnits="userSpaceOnUse">
<stop stop-color="#FFEE8C"/>
<stop offset="1" stop-color="#F7A516"/>
</linearGradient>
<clipPath id="clip0_1358_4413">
<rect width="123" height="48.1916" fill="white"/>
</clipPath>
</defs>
</svg>
