<svg width="86" height="33" viewBox="0 0 86 33" fill="none" xmlns="http://www.w3.org/2000/svg">
<g clip-path="url(#clip0_1053_18301)">
<rect width="86" height="33" fill="white"/>
<path d="M19.4257 13.5585L19.7715 5.20267L22.8353 5.32947C23.2879 5.34821 23.5236 5.13127 23.5423 4.67866L23.5935 3.4427C23.613 2.97269 23.396 2.73702 22.926 2.71757L14.2917 2.36021C13.8217 2.34076 13.586 2.5577 13.5665 3.02771L13.5154 4.26367C13.4967 4.71627 13.7136 4.95194 14.1662 4.97068L17.2474 5.0982L16.9016 13.454C16.8821 13.924 17.0991 14.1597 17.5691 14.1791L18.7006 14.226C19.1706 14.2454 19.4063 14.0285 19.4257 13.5585ZM26.6242 13.8564L26.7639 10.4793C26.8302 8.87773 27.6083 8.19499 28.7572 8.24254C29.5928 8.27712 30.0724 8.90729 30.0198 10.1781L29.8476 14.3386C29.8282 14.8086 30.0451 15.0442 30.5151 15.0637L31.5596 15.1069C32.0296 15.1264 32.2653 14.9094 32.2847 14.4394L32.4893 9.49558C32.5938 6.97144 31.3858 5.82286 29.6973 5.75298C28.7224 5.71263 27.6056 6.15466 26.9015 7.15435L27.0709 3.06349C27.0903 2.59348 26.8734 2.35781 26.4034 2.33836L25.3589 2.29513C24.8889 2.27567 24.6532 2.49261 24.6337 2.96262L24.1871 13.7555C24.1676 14.2255 24.3845 14.4612 24.8546 14.4807L25.899 14.5239C26.369 14.5433 26.6047 14.3264 26.6242 13.8564ZM37.8466 15.2276C38.9607 15.2737 40.264 14.9615 41.1451 14.3179C41.433 14.1031 41.3532 13.9254 41.245 13.5896L40.9343 12.67C40.8262 12.3342 40.5708 12.1841 40.3032 12.33C39.6976 12.6363 38.9325 13.0057 38.271 12.9783C37.0873 12.9293 36.3437 12.358 36.0272 11.5776L40.9071 11.2216C41.5192 11.1771 41.6011 10.8841 41.6299 10.1878C41.7301 7.76807 40.2783 6.1909 38.0327 6.09796C35.1429 5.97836 33.5775 7.98866 33.4745 10.478C33.3628 13.1762 35.0788 15.1131 37.8466 15.2276ZM37.7649 8.35378C38.5135 8.38476 39.0184 8.82417 39.1491 9.45734L36.0006 9.69322C36.2513 8.69221 36.8597 8.31632 37.7649 8.35378Z" fill="#341C31"/>
<path d="M9.1378 28.4893L9.25512 16.7575L13.5535 16.9294C14.1885 16.9548 14.5092 16.6498 14.5156 16.0143L14.5329 14.279C14.5395 13.6191 14.2252 13.2887 13.5658 13.2623L1.45203 12.7777C0.792612 12.7513 0.471937 13.0564 0.465338 13.7163L0.447984 15.4516C0.44163 16.0871 0.75595 16.4175 1.39095 16.4429L5.7138 16.6158L5.59648 28.3476C5.58988 29.0075 5.9042 29.338 6.56362 29.3643L8.1511 29.4278C8.81052 29.4542 9.1312 29.1492 9.1378 28.4893ZM18.927 28.8808L18.9744 24.1392C18.9942 22.1595 20.0302 21.174 21.3735 21.2277C21.7887 21.2443 22.2522 21.3118 22.9346 21.4858C23.3488 21.6002 23.5698 21.4867 23.5979 21.1211L23.8703 18.3201C23.8964 18.15 23.8493 17.977 23.6551 17.847C23.3396 17.6387 22.779 17.4941 22.2417 17.4726C21.0939 17.4267 19.8407 18.1345 19.0216 19.4221L19.0419 17.3935C19.0485 16.7336 18.7341 16.4031 18.0747 16.3768L16.6093 16.3181C15.9499 16.2918 15.6293 16.5968 15.6227 17.2567L15.5078 28.7441C15.5012 29.404 15.8155 29.7344 16.4749 29.7608L17.9403 29.8194C18.5997 29.8458 18.9204 29.5407 18.927 28.8808ZM30.8956 30.631C32.4587 30.6936 34.2711 30.2526 35.4774 29.3472C35.8713 29.0451 35.7516 28.7958 35.5853 28.3246L35.1096 27.0341C34.9432 26.5629 34.5789 26.3527 34.2103 26.5581C33.3753 26.9892 32.3195 27.5094 31.3914 27.4722C29.7307 27.4058 28.6636 26.6051 28.1859 25.5102L35.0077 25.0006C35.8635 24.9371 35.9654 24.5255 35.9751 23.5478C36.0091 20.1505 33.9056 17.9391 30.755 17.8131C26.7008 17.6509 24.5958 20.4764 24.5608 23.9715C24.523 27.7599 27.0124 30.4757 30.8956 30.631ZM30.479 20.9807C31.5292 21.0227 32.256 21.6386 32.467 22.5273L28.0658 22.8647C28.373 21.4588 29.209 20.9299 30.479 20.9807ZM40.8168 30.2455L40.8691 25.015C40.8916 22.7664 41.9518 21.8064 43.5637 21.8708C44.736 21.9177 45.4357 22.8015 45.4179 24.5857L45.3644 29.9383C45.3578 30.5982 45.6721 30.9287 46.3315 30.9551L47.7969 31.0137C48.4563 31.04 48.777 30.735 48.7836 30.0751L48.8481 23.6226C48.8835 20.0787 47.1405 18.4685 44.7715 18.3738C43.4038 18.3191 41.8583 18.9419 40.9158 20.3468L40.9342 18.5137C40.9407 17.8538 40.6264 17.5233 39.967 17.497L38.5016 17.4383C37.8422 17.412 37.5215 17.717 37.5149 18.3769L37.3976 30.1087C37.391 30.7686 37.7053 31.099 38.3648 31.1254L39.8301 31.184C40.4896 31.2104 40.8102 30.9054 40.8168 30.2455ZM61.2204 32.0396C61.8798 32.066 62.2005 31.761 62.2071 31.1011L62.3684 14.9699C62.375 14.31 62.0607 13.9795 61.4013 13.9531L59.9359 13.8945C59.2765 13.8682 58.9558 14.1732 58.9492 14.8331L58.9052 19.2325C58.1012 19.0048 57.2962 18.8747 56.4658 18.8415C53.0222 18.7038 50.3115 21.016 50.2731 24.8533C50.2352 28.6417 52.5307 31.203 55.3638 31.3163C56.707 31.3701 57.9331 30.9301 58.7969 30.06L58.7879 30.9643C58.7813 31.6242 59.0956 31.9546 59.755 31.981L61.2204 32.0396ZM56.1075 27.8007C54.6177 27.7411 53.6764 26.5787 53.6923 24.99C53.7107 23.157 54.8676 22.2985 56.4306 22.3611C57.3587 22.3982 58.139 22.5517 58.8693 22.8254L58.8509 24.6585C58.8302 26.736 57.8171 27.8691 56.1075 27.8007ZM73.1837 32.0291C73.6722 32.0487 73.967 31.8893 74.0927 31.5276C74.1428 31.4073 74.1687 31.2617 74.1704 31.0906L74.1851 29.6241C74.19 29.1353 73.9978 28.8097 73.6326 28.6729C73.5108 28.6435 73.3889 28.6142 73.2179 28.6074L68.3334 28.412L73.6637 23.1237C73.713 23.0768 73.7626 23.0054 73.8119 22.9585C73.8615 22.8871 73.8864 22.8392 73.9116 22.7669C73.936 22.7679 73.9363 22.7434 73.9363 22.7434L73.9365 22.719C73.9614 22.6711 73.9617 22.6466 73.9868 22.5743C74.012 22.5019 74.0129 22.4042 74.0142 22.282L74.0288 20.8155C74.0305 20.6444 74.0076 20.4968 73.96 20.3726C73.8415 20.0011 73.5502 19.8183 73.0617 19.7988L65.1243 19.4813C64.6602 19.4627 64.341 19.6211 64.2152 19.9828C64.1652 20.1031 64.1393 20.2488 64.1376 20.4199L64.1229 21.8863C64.118 22.3751 64.3102 22.7007 64.6753 22.8376C64.7972 22.8669 64.9435 22.8972 65.09 22.903L69.2908 23.0711L64.2064 28.198C63.9104 28.4796 63.8583 28.7954 63.9289 29.0672L63.9128 30.6803C63.9111 30.8514 63.934 30.999 63.9817 31.1231C64.1001 31.4946 64.4159 31.6784 64.8799 31.697L73.1837 32.0291Z" fill="#341C31"/>
<path d="M83.3948 27.6892C83.8191 27.7364 84.0901 27.6162 84.2316 27.3097C84.2858 27.2084 84.3211 27.0834 84.3376 26.9349L84.4791 25.6621C84.5262 25.2378 84.3871 24.9431 84.0807 24.8017C83.977 24.7687 83.8733 24.7357 83.7248 24.7192L79.4819 24.2478L84.5946 19.9837C84.6417 19.946 84.6912 19.887 84.7384 19.8493C84.7879 19.7904 84.8138 19.7503 84.8421 19.689C84.8633 19.6914 84.8656 19.6702 84.8656 19.6702L84.868 19.649C84.8939 19.6089 84.8963 19.5877 84.9246 19.5264C84.9529 19.4651 84.9623 19.3802 84.9741 19.2742L85.1155 18.0013C85.132 17.8528 85.1249 17.7232 85.0943 17.6124C85.0236 17.2824 84.7855 17.1056 84.3612 17.0584L77.4665 16.2924C77.0634 16.2476 76.7712 16.3654 76.6297 16.6719C76.5755 16.7732 76.5402 16.8981 76.5237 17.0466L76.3822 18.3195C76.3351 18.7438 76.4742 19.0385 76.7806 19.1799C76.8843 19.2129 77.0092 19.2482 77.1365 19.2624L80.7854 19.6678L75.9014 23.807C75.6185 24.0333 75.5454 24.3043 75.5831 24.5448L75.4276 25.9449C75.4111 26.0934 75.4181 26.2231 75.4488 26.3339C75.5195 26.6639 75.7788 26.843 76.1819 26.8878L83.3948 27.6892Z" fill="#341C31"/>
<g filter="url(#filter0_d_1053_18301)">
<path d="M4.85846 0.916538C4.87946 0.449988 5.47183 0.264384 5.75531 0.635532L7.22099 2.55451C7.3108 2.67208 7.44806 2.74385 7.59586 2.75051L10.0081 2.85911C10.4747 2.88011 10.6603 3.47248 10.2891 3.75596L8.37013 5.22164C8.25256 5.31144 8.18079 5.44871 8.17413 5.59651L8.06553 8.00875C8.04453 8.4753 7.45216 8.6609 7.16868 8.28976L5.703 6.37078C5.6132 6.2532 5.47593 6.18143 5.32813 6.17478L2.91589 6.06618C2.44934 6.04518 2.26374 5.45281 2.63488 5.16933L4.55386 3.70365C4.67144 3.61384 4.74321 3.47658 4.74986 3.32878L4.85846 0.916538Z" fill="url(#paint0_linear_1053_18301)"/>
</g>
<g filter="url(#filter1_d_1053_18301)">
<path d="M51.8063 12.7517C52.2115 12.9839 52.1054 13.5956 51.6457 13.6777L49.8671 13.9956C49.7215 14.0216 49.5949 14.1108 49.5213 14.2392L48.6229 15.8067C48.3907 16.2119 47.7791 16.1058 47.6969 15.646L47.3791 13.8675C47.3531 13.7219 47.2639 13.5952 47.1355 13.5217L45.568 12.6233C45.1628 12.3911 45.2689 11.7795 45.7286 11.6973L47.5072 11.3795C47.6528 11.3534 47.7794 11.2642 47.853 11.1359L48.7514 9.56834C48.9836 9.16315 49.5952 9.26926 49.6774 9.729L49.9952 11.5075C50.0212 11.6532 50.1104 11.7798 50.2388 11.8534L51.8063 12.7517Z" fill="url(#paint1_linear_1053_18301)"/>
</g>
</g>
<defs>
<filter id="filter0_d_1053_18301" x="-17.5625" y="-19.562" width="48.0488" height="48.0488" filterUnits="userSpaceOnUse" color-interpolation-filters="sRGB">
<feFlood flood-opacity="0" result="BackgroundImageFix"/>
<feColorMatrix in="SourceAlpha" type="matrix" values="0 0 0 0 0 0 0 0 0 0 0 0 0 0 0 0 0 0 127 0" result="hardAlpha"/>
<feOffset/>
<feGaussianBlur stdDeviation="10"/>
<feComposite in2="hardAlpha" operator="out"/>
<feColorMatrix type="matrix" values="0 0 0 0 0 0 0 0 0 0 0 0 0 0 0 0 0 0 0.31 0"/>
<feBlend mode="normal" in2="BackgroundImageFix" result="effect1_dropShadow_1053_18301"/>
<feBlend mode="normal" in="SourceGraphic" in2="effect1_dropShadow_1053_18301" result="shape"/>
</filter>
<filter id="filter1_d_1053_18301" x="25.3164" y="-10.6831" width="46.7422" height="46.7417" filterUnits="userSpaceOnUse" color-interpolation-filters="sRGB">
<feFlood flood-opacity="0" result="BackgroundImageFix"/>
<feColorMatrix in="SourceAlpha" type="matrix" values="0 0 0 0 0 0 0 0 0 0 0 0 0 0 0 0 0 0 127 0" result="hardAlpha"/>
<feOffset/>
<feGaussianBlur stdDeviation="10"/>
<feComposite in2="hardAlpha" operator="out"/>
<feColorMatrix type="matrix" values="0 0 0 0 0 0 0 0 0 0 0 0 0 0 0 0 0 0 0.31 0"/>
<feBlend mode="normal" in2="BackgroundImageFix" result="effect1_dropShadow_1053_18301"/>
<feBlend mode="normal" in="SourceGraphic" in2="effect1_dropShadow_1053_18301" result="shape"/>
</filter>
<linearGradient id="paint0_linear_1053_18301" x1="4.92033" y1="-0.457684" x2="8.00367" y2="9.38297" gradientUnits="userSpaceOnUse">
<stop stop-color="#FFEE8C"/>
<stop offset="1" stop-color="#F7A516"/>
</linearGradient>
<linearGradient id="paint1_linear_1053_18301" x1="52.9998" y1="13.4357" x2="44.3745" y2="11.9393" gradientUnits="userSpaceOnUse">
<stop stop-color="#FFEE8C"/>
<stop offset="1" stop-color="#F7A516"/>
</linearGradient>
<clipPath id="clip0_1053_18301">
<rect width="86" height="33" fill="white"/>
</clipPath>
</defs>
</svg>
