<svg width="35" height="24" viewBox="0 0 35 24" fill="none" xmlns="http://www.w3.org/2000/svg">
<g clip-path="url(#clip0_428_33760)">
<path d="M30.0001 0H5.27282C2.86285 0 0.90918 1.95367 0.90918 4.36364V19.6364C0.90918 22.0463 2.86285 24 5.27282 24H30.0001C32.4101 24 34.3637 22.0463 34.3637 19.6364V4.36364C34.3637 1.95367 32.4101 0 30.0001 0Z" fill="white"/>
<path d="M5.27282 0.5H30.0001C32.1339 0.5 33.8637 2.22981 33.8637 4.36364V19.6364C33.8637 21.7702 32.1339 23.5 30.0001 23.5H5.27282C3.13899 23.5 1.40918 21.7702 1.40918 19.6364V4.36364C1.40918 2.22981 3.13899 0.5 5.27282 0.5Z" stroke="#270E24" stroke-opacity="0.06"/>
<path fill-rule="evenodd" clip-rule="evenodd" d="M17.825 17.3809C16.686 18.4092 15.2087 19.03 13.5943 19.03C9.992 19.03 7.07178 15.9393 7.07178 12.127C7.07178 8.31455 9.992 5.22396 13.5943 5.22396C15.2087 5.22396 16.686 5.84472 17.825 6.873C18.964 5.84472 20.4414 5.22396 22.0558 5.22396C25.658 5.22396 28.5783 8.31455 28.5783 12.127C28.5783 15.9393 25.658 19.03 22.0558 19.03C20.4414 19.03 18.964 18.4092 17.825 17.3809Z" fill="#ED0006"/>
<path fill-rule="evenodd" clip-rule="evenodd" d="M17.8252 17.3809C19.2276 16.1148 20.1169 14.2308 20.1169 12.127C20.1169 10.0231 19.2276 8.13913 17.8252 6.873C18.9642 5.84472 20.4416 5.22396 22.056 5.22396C25.6582 5.22396 28.5784 8.31455 28.5784 12.127C28.5784 15.9393 25.6582 19.03 22.056 19.03C20.4416 19.03 18.9642 18.4092 17.8252 17.3809Z" fill="#F9A000"/>
<path fill-rule="evenodd" clip-rule="evenodd" d="M17.8253 6.87303C19.2277 8.13913 20.117 10.0231 20.117 12.127C20.117 14.2308 19.2277 16.1148 17.8253 17.3809C16.4229 16.1148 15.5337 14.2308 15.5337 12.127C15.5337 10.0231 16.4229 8.13913 17.8253 6.87303Z" fill="#FF5E00"/>
</g>
<defs>
<clipPath id="clip0_428_33760">
<rect width="33.4545" height="24" fill="white" transform="translate(0.90918)"/>
</clipPath>
</defs>
</svg>
