<svg width="31" height="34" viewBox="0 0 31 34" fill="none" xmlns="http://www.w3.org/2000/svg">
<path d="M28.9922 2.805C28.6324 2.465 28.0927 2.295 27.553 2.465C23.5954 3.315 19.6377 2.465 16.3996 0.255C15.8599 -0.085 14.9605 -0.085 14.4208 0.255C11.0028 2.465 7.04511 3.315 3.08744 2.465C2.18797 2.295 1.10861 2.975 0.928711 3.825C0.928711 3.995 0.928711 3.995 0.928711 4.165V16.915C0.928711 21.845 3.44723 26.435 7.76469 29.325L14.4208 33.745C14.9605 34.085 15.8599 34.085 16.5795 33.745L23.2356 29.325C27.553 26.435 30.0716 21.845 30.0716 16.915V4.165C29.7118 3.655 29.5319 3.145 28.9922 2.805ZM20.7171 15.385L14.6007 21.165C13.8811 21.845 12.8017 21.845 12.0821 21.165L9.20384 18.445C8.48427 17.765 8.48427 16.745 9.20384 16.065C9.92342 15.385 11.0028 15.385 11.7224 16.065L13.3414 17.595L18.1986 13.005C18.9181 12.325 19.9975 12.325 20.7171 13.005C21.4366 13.685 21.4366 14.705 20.7171 15.385Z" fill="#F44C76"/>
</svg>
