<svg width="14" height="14" viewBox="0 0 14 14" fill="none" xmlns="http://www.w3.org/2000/svg">
<g clip-path="url(#clip0_406_34426)">
<path fill-rule="evenodd" clip-rule="evenodd" d="M4.31634 1.16683C4.31634 0.844663 4.57751 0.583496 4.89967 0.583496H9.09967C9.42184 0.583496 9.68301 0.844663 9.68301 1.16683C9.68301 1.489 9.42184 1.75016 9.09967 1.75016H4.89967C4.57751 1.75016 4.31634 1.489 4.31634 1.16683ZM0.583008 3.26683C0.583008 2.94466 0.844175 2.6835 1.16634 2.6835H12.833C13.1552 2.6835 13.4163 2.94466 13.4163 3.26683C13.4163 3.58899 13.1552 3.85016 12.833 3.85016H12.0163V10.7335C12.0163 12.2223 10.8218 13.4168 9.333 13.4168H4.66634C3.16708 13.4168 1.983 12.2118 1.983 10.6752V3.85016H1.16634C0.844175 3.85016 0.583008 3.58899 0.583008 3.26683ZM3.14967 3.85016V10.6752C3.14967 11.5885 3.83226 12.2502 4.66634 12.2502H9.333C10.1775 12.2502 10.8497 11.578 10.8497 10.7335V3.85016H3.14967ZM5.42468 5.36683C5.74684 5.36683 6.00801 5.628 6.00801 5.95016V10.2085C6.00801 10.5307 5.74684 10.7918 5.42468 10.7918C5.10251 10.7918 4.84134 10.5307 4.84134 10.2085V5.95016C4.84134 5.628 5.10251 5.36683 5.42468 5.36683ZM8.57467 5.36683C8.89684 5.36683 9.15801 5.628 9.15801 5.95016V10.2085C9.15801 10.5307 8.89684 10.7918 8.57467 10.7918C8.25251 10.7918 7.99134 10.5307 7.99134 10.2085V5.95016C7.99134 5.628 8.25251 5.36683 8.57467 5.36683Z" fill="#270E24"/>
</g>
<defs>
<clipPath id="clip0_406_34426">
<rect width="14" height="14" fill="white"/>
</clipPath>
</defs>
</svg>
