<svg width="2112" height="96" viewBox="0 0 2112 96" fill="none" xmlns="http://www.w3.org/2000/svg">
<path fill-rule="evenodd" clip-rule="evenodd" d="M0 27.4717H44.6984C88 27.4717 176 27.4717 264 32C352 36.5283 440 45.8868 528 38.9434C616 32 704 9.0566 792 9.0566C880 9.0566 968 32 1056 43.4717C1144 54.9434 1232 54.9434 1320 48C1408 41.0566 1496 27.4717 1584 29.8868C1672 32 1760 50.4151 1848 48C1936 45.8868 2024 22.9434 2068.7 11.4717L2112 0V96H2068.7C2024 96 1936 96 1848 96C1760 96 1672 96 1584 96C1496 96 1408 96 1320 96C1232 96 1144 96 1056 96C968 96 880 96 792 96C704 96 616 96 528 96C440 96 352 96 264 96C176 96 88 96 44.6984 96H0V27.4717Z" fill="#FBF3EB"/>
</svg>
